# xmcd
#
# Track frame offsets: 
#        150
#        12554
#        27624
#        39740
#        56155
#        68006
#        75868
#        87519
#        100309
#        114503
#        128050
#
# Disc length: 1881 seconds
#
# Revision: 0
# Processed by: cddbd v1.5.2PL0 Copyright (c) Steve Scherf et al.
# Submitted via: ExactAudioCopyFreeDBPlugin 1.0
#
DISCID=8f07570b
DTITLE=Woody Pines - Woody Pines
DYEAR=2015
DGENRE=Country Blues
TTITLE0=Anything For Love
TTITLE1=Junco Partner
TTITLE2=Little Stella Blue
TTITLE3=Make It To the Woods
TTITLE4=This Train Rolls By
TTITLE5=New Nashville Boogie
TTITLE6=Walking Stick
TTITLE7=Over the Water
TTITLE8=Delta Bound
TTITLE9=Black Rat Swing
TTITLE10=Worth The Game
EXTD=
EXTT0=
EXTT1=
EXTT2=
EXTT3=
EXTT4=
EXTT5=
EXTT6=
EXTT7=
EXTT8=
EXTT9=
EXTT10=
PLAYORDER=
